<?xml version="1.0" encoding="UTF-8"?>
<svg id="Layer_2" xmlns="http://www.w3.org/2000/svg" viewBox="0 0 2142.87 782.55">
  <defs>
    <style>
      .cls-1, .cls-2 {
        fill: #231f20;
      }

      .cls-2 {
        font-family: Montserrat-SemiBold, Montserrat;
        font-size: 100px;
        font-weight: 600;
      }
    </style>
  </defs>
  <g id="Layer_1-2" data-name="Layer_1">
    <g>
      <g>
        <path class="cls-1" d="M141.47,148.93H9.45c-3.05,0-5.39.97-7.01,2.9-1.63,1.93-2.44,4.63-2.44,8.08,0,2.03.3,3.96.91,5.79.61,1.83,1.22,3.25,1.83,4.27h57.02v154.58c0,3.86,1.11,6.71,3.35,8.54,2.24,1.83,5.59,2.74,10.06,2.74,2.24,0,4.42-.26,6.55-.76,2.13-.51,3.71-.96,4.73-1.37v-163.73h50.31c3.05,0,5.38-1.07,7.01-3.2,1.63-2.13,2.44-4.83,2.44-8.08,0-2.03-.31-3.96-.92-5.79s-1.22-3.15-1.83-3.96Z"/>
        <path class="cls-1" d="M295.13,313.58h-91.47v-64.03h73.78c3.05,0,5.38-1.01,7.01-3.05,1.62-2.03,2.44-4.67,2.44-7.93,0-2.03-.3-3.96-.91-5.79-.61-1.83-1.22-3.15-1.83-3.96h-80.49v-58.84h83.23c3.05,0,5.38-1.07,7.01-3.2,1.62-2.13,2.44-4.83,2.44-8.08,0-2.03-.3-3.96-.91-5.79-.61-1.83-1.22-3.15-1.83-3.96h-101.22c-4.07,0-7.32,1.22-9.76,3.66s-3.66,5.69-3.66,9.76v158.54c0,3.86,1.22,7.06,3.66,9.6,2.44,2.54,5.69,3.81,9.76,3.81h96.04c3.05,0,5.38-1.01,7.01-3.05,1.62-2.03,2.44-4.67,2.44-7.93,0-2.23-.3-4.22-.92-5.94-.61-1.72-1.22-3-1.83-3.81Z"/>
        <path class="cls-1" d="M459.16,242.08c-5.69-16.16-11.33-31.71-16.92-46.65-5.59-14.94-10.82-28.3-15.7-40.09-1.02-2.84-3.41-4.88-7.17-6.1-3.76-1.22-7.67-1.83-11.74-1.83-3.46,0-6.81.41-10.06,1.22-3.25.81-5.69,1.63-7.32,2.44-3.86,9.76-8.03,20.53-12.5,32.32-4.47,11.79-9.05,23.89-13.72,36.28-4.68,12.4-9.15,24.5-13.41,36.28-4.27,11.79-8.18,22.67-11.74,32.62-3.56,9.96-6.55,18.4-8.99,25.31-.81,2.24-1.52,4.32-2.13,6.25-.61,1.93-.92,3.81-.92,5.64,0,3.86,1.27,6.66,3.81,8.38,2.54,1.72,5.44,2.59,8.69,2.59,2.24,0,4.12-.15,5.64-.46,1.52-.3,3-.76,4.42-1.37,1.01-3.25,2.44-7.47,4.27-12.65,1.83-5.18,3.76-10.77,5.79-16.77,2.03-5.99,3.96-11.74,5.79-17.23.39-1.17.76-2.27,1.12-3.35h81.85l13.68,40.55c1.42,4.07,3.15,6.97,5.18,8.69,2.03,1.72,4.98,2.59,8.84,2.59,2.84,0,5.44-.56,7.77-1.68,2.33-1.12,4.22-2.59,5.64-4.42-4.07-12.4-8.69-26.22-13.87-41.47-5.18-15.24-10.62-30.95-16.31-47.11ZM383.7,235.07c4.37-12.5,8.64-24.64,12.81-36.43,4.16-11.79,7.78-21.95,10.82-30.49h1.22c2.44,6.91,5.54,15.75,9.3,26.53,3.76,10.78,7.82,22.46,12.19,35.06,4.05,11.68,7.95,23.26,11.74,34.76h-68.47c3.29-9.22,6.74-19,10.39-29.42Z"/>
        <path class="cls-1" d="M637.82,312.97h-87.5v-154.27c0-4.06-1.12-6.96-3.35-8.69-2.24-1.72-5.59-2.59-10.06-2.59-2.44,0-4.73.26-6.86.76-2.13.51-3.71.97-4.73,1.37v171.35c0,3.86,1.27,7.06,3.81,9.6,2.54,2.54,5.74,3.81,9.6,3.81h92.38c3.05,0,5.49-1.01,7.32-3.05,1.83-2.03,2.74-4.77,2.74-8.23,0-2.23-.3-4.27-.91-6.1-.61-1.83-1.43-3.15-2.44-3.96Z"/>
        <path class="cls-1" d="M1114.69,175.94c-11.89-10.87-30.75-16.31-56.56-16.31-7.93,0-16.11.41-24.54,1.22-8.44.81-15.6,2.13-21.49,3.96-3.25,1.02-5.75,2.39-7.47,4.12-1.73,1.73-2.59,4.22-2.59,7.47v162.2c0,3.86,1.11,6.71,3.35,8.54,2.23,1.83,5.59,2.74,10.06,2.74,2.44,0,4.67-.26,6.71-.76,2.03-.51,3.66-.96,4.88-1.37v-65.55h30.79c17.07,0,31.1-2.54,42.08-7.62,10.98-5.08,19.15-12.3,24.54-21.65,5.38-9.35,8.08-20.32,8.08-32.93,0-18.49-5.95-33.18-17.84-44.06ZM1094.11,251.25c-8.95,6.81-21.55,10.21-37.81,10.21h-29.57v-78.36c4.27-.81,9.09-1.47,14.48-1.98,5.38-.51,10.82-.76,16.31-.76,16.05,0,28.4,3.2,37.04,9.6,8.64,6.4,12.96,16.52,12.96,30.34s-4.47,24.14-13.41,30.95Z"/>
        <path class="cls-1" d="M1279.48,256.13c-5.69-16.16-11.33-31.71-16.92-46.65-5.59-14.94-10.82-28.3-15.7-40.09-1.02-2.84-3.41-4.88-7.17-6.1-3.76-1.22-7.67-1.83-11.74-1.83-3.46,0-6.81.41-10.06,1.22-3.25.81-5.69,1.63-7.32,2.44-3.86,9.76-8.03,20.53-12.5,32.32-4.47,11.79-9.05,23.89-13.72,36.28-4.68,12.4-9.15,24.5-13.41,36.28-4.27,11.79-8.18,22.67-11.74,32.62-3.56,9.96-6.55,18.4-8.99,25.31-.81,2.24-1.52,4.32-2.13,6.25-.61,1.93-.92,3.81-.92,5.64,0,3.86,1.27,6.66,3.81,8.38,2.54,1.72,5.44,2.59,8.69,2.59,2.24,0,4.12-.15,5.64-.46,1.52-.3,3-.76,4.42-1.37,1.01-3.25,2.44-7.47,4.27-12.65,1.83-5.18,3.76-10.77,5.79-16.77,2.03-5.99,3.96-11.74,5.79-17.23.39-1.17.76-2.27,1.12-3.35h81.85l13.68,40.55c1.42,4.07,3.15,6.97,5.18,8.69,2.03,1.72,4.98,2.59,8.84,2.59,2.84,0,5.44-.56,7.77-1.68,2.33-1.12,4.22-2.59,5.64-4.42-4.07-12.4-8.69-26.22-13.87-41.47-5.18-15.24-10.62-30.95-16.31-47.11ZM1204.02,249.11c4.37-12.5,8.64-24.64,12.81-36.43,4.16-11.79,7.78-21.95,10.82-30.49h1.22c2.44,6.91,5.54,15.75,9.3,26.53,3.76,10.78,7.82,22.46,12.19,35.06,4.05,11.68,7.95,23.26,11.74,34.76h-68.47c3.29-9.22,6.74-19,10.39-29.42Z"/>
        <path class="cls-1" d="M1459.67,305.97c-5.69-7.32-11.58-14.84-17.68-22.56-2.33-2.95-4.62-5.84-6.88-8.69,3.87-1.04,7.51-2.29,10.85-3.81,10.77-4.88,18.9-11.79,24.39-20.73,5.49-8.94,8.23-19.41,8.23-31.4,0-18.7-6.3-33.23-18.9-43.6-12.6-10.37-31.61-15.55-57.01-15.55-8.13,0-16.52.41-25.15,1.22-8.64.81-15.91,2.13-21.8,3.96-3.25,1.02-5.75,2.39-7.47,4.12-1.73,1.73-2.59,4.22-2.59,7.47v162.2c0,3.86,1.11,6.71,3.35,8.54,2.23,1.83,5.59,2.74,10.06,2.74,2.44,0,4.67-.26,6.71-.76,2.03-.51,3.66-.96,4.88-1.37v-69.51h34.76c2.1,0,4.16-.04,6.17-.13l44.44,62.32c2.44,3.25,4.77,5.75,7.01,7.47,2.23,1.72,5.08,2.59,8.54,2.59,2.84,0,5.64-1.02,8.38-3.05,2.75-2.03,4.52-4.77,5.34-8.23-2.44-3.25-5.9-7.77-10.37-13.57-4.47-5.79-9.56-12.35-15.25-19.67ZM1370.34,257.5v-74.39c4.27-.81,9.19-1.47,14.79-1.98,5.59-.51,11.13-.76,16.62-.76,16.66,0,29.47,3.25,38.42,9.76,8.94,6.51,13.41,16.06,13.41,28.66s-4.27,22.46-12.81,28.97c-8.54,6.51-20.33,9.76-35.37,9.76h-35.06Z"/>
        <path class="cls-1" d="M1639.25,305.97c-5.69-7.32-11.58-14.84-17.68-22.56-2.33-2.95-4.62-5.84-6.88-8.69,3.87-1.04,7.51-2.29,10.85-3.81,10.77-4.88,18.9-11.79,24.39-20.73,5.49-8.94,8.23-19.41,8.23-31.4,0-18.7-6.3-33.23-18.9-43.6-12.6-10.37-31.61-15.55-57.01-15.55-8.13,0-16.52.41-25.15,1.22-8.64.81-15.91,2.13-21.8,3.96-3.25,1.02-5.75,2.39-7.47,4.12-1.73,1.73-2.59,4.22-2.59,7.47v162.2c0,3.86,1.11,6.71,3.35,8.54,2.23,1.83,5.59,2.74,10.06,2.74,2.44,0,4.67-.26,6.71-.76,2.03-.51,3.66-.96,4.88-1.37v-69.51h34.76c2.1,0,4.16-.04,6.17-.13l44.44,62.32c2.44,3.25,4.77,5.75,7.01,7.47,2.23,1.72,5.08,2.59,8.54,2.59,2.84,0,5.64-1.02,8.38-3.05,2.75-2.03,4.52-4.77,5.34-8.23-2.44-3.25-5.9-7.77-10.37-13.57-4.47-5.79-9.56-12.35-15.25-19.67ZM1549.91,257.5v-74.39c4.27-.81,9.19-1.47,14.79-1.98,5.59-.51,11.13-.76,16.62-.76,16.66,0,29.47,3.25,38.42,9.76,8.94,6.51,13.41,16.06,13.41,28.66s-4.27,22.46-12.81,28.97c-8.54,6.51-20.33,9.76-35.37,9.76h-35.06Z"/>
        <path class="cls-1" d="M1825.69,169.99c-13.31-7.32-28.31-10.98-44.97-10.98s-31.36,3.66-44.67,10.98c-13.31,7.32-23.93,18.14-31.86,32.47-7.93,14.33-11.89,32.07-11.89,53.2s3.86,38.87,11.59,53.2c7.72,14.33,18.29,25.15,31.71,32.47,13.41,7.32,28.45,10.98,45.12,10.98s31.96-3.66,45.28-10.98c13.31-7.32,23.83-18.14,31.56-32.47,7.72-14.33,11.59-32.06,11.59-53.2s-3.92-38.87-11.74-53.2c-7.83-14.33-18.4-25.15-31.71-32.47ZM1826.75,311.61c-11.39,13.11-26.73,19.67-46.04,19.67s-34.35-6.55-45.73-19.67c-11.39-13.11-17.08-31.76-17.08-55.95s5.74-42.84,17.23-55.95c11.48-13.11,26.68-19.67,45.58-19.67s34.4,6.55,45.89,19.67c11.48,13.11,17.23,31.76,17.23,55.95s-5.69,42.84-17.07,55.95Z"/>
        <path class="cls-1" d="M2030.12,166.94c-.61-1.83-1.22-3.15-1.83-3.96h-132.02c-3.05,0-5.39.97-7.01,2.9-1.63,1.93-2.44,4.63-2.44,8.08,0,2.03.3,3.96.91,5.79.61,1.83,1.22,3.25,1.83,4.27h57.02v154.58c0,3.86,1.11,6.71,3.35,8.54,2.24,1.83,5.59,2.74,10.06,2.74,2.24,0,4.42-.26,6.55-.76,2.13-.51,3.71-.96,4.73-1.37v-163.73h50.31c3.05,0,5.38-1.07,7.01-3.2,1.63-2.13,2.44-4.83,2.44-8.08,0-2.03-.31-3.96-.92-5.79Z"/>
      </g>
      <path class="cls-1" d="M467.45,782.55c86.69-179.12,197.42-405.75,282.4-585.93,19.46-40.08,38.11-82.41,64.54-118.48,25.19-35.04,63.19-70.7,108.98-76.92,22.73-3.52,46.55.71,66.91,11.34,18.61,9.03,32.54,26.87,39.15,45.29,3.57,8.75,4.95,17.48,10.59,25.46,2.88,3.93,7.2,7.67,12.62,11.46-8.25,5.94-20.07,7.42-30.25,4.65-14.83-3.76-27.87-15.83-39.65-23.88-7.21-5.03-13.02-6.63-20.81-8.66-39.05-9.15-78.34,19.53-103.86,46.8-13.78,14.51-24.9,31.71-35.26,48.89-24.18,39.95-59.99,98.79-83.55,138.93-89.69,155.56-184.89,324.14-271.81,481.06h0Z"/>
      <path class="cls-1" d="M317.52,463.01c-4.87-11.24,33.22-20.06,40.9-22.68,44.72-12.17,90.24-21.15,135.37-31.21,89.6-19.63,179.48-39.16,266.28-68.84,43.46-15.71,124.73-45.87,139.35-91.6,4.01-14.86-1.89-29.19-10.54-41.62-3.59-5.18-7.79-10.27-12.4-15.22-20.27-23.57,12.2-53.87,34.32-31.94,12.79,15.04,23.84,31.97,29.63,51.58,25.87,95.53-99.78,139.08-169.76,161.26-89.23,27.03-181.58,41.48-273.55,54.96-53.14,8.14-106.86,13.13-159.2,25.32-3.64.99-7.26,2.09-10.62,3.51-2.37,1.03-4.59,2.06-6.08,3.91-.23.45-.3.71-.22,1.15l.06.36c.17,1.02-.52,1.98-1.54,2.15-.86.14-1.69-.33-2.02-1.1h0Z"/>
      <text class="cls-2" transform="translate(2039.17 182.19)"><tspan x="0" y="0">™</tspan></text>
    </g>
  </g>
</svg>